<svg xmlns="http://www.w3.org/2000/svg" viewBox="0 0 176 176" role="img" aria-label="Steam">
  <circle cx="88" cy="88" r="88" fill="#1b2838"/>
  <path fill="#fff" d="M87.6 0C39.3 0 .2 39.1.2 87.4c0 32.5 17.9 60.8 44.3 75.6l29.9-43.8a20.5 20.5 0 0 1-4.5-.7c-9-2.6-15.6-10.9-15.6-20.7 0-12 9.7-21.7 21.7-21.7s21.7 9.7 21.7 21.7c0 9.8-6.6 18.1-15.6 20.7a20.5 20.5 0 0 1-4.5.7l29.9 43.8c26.4-14.8 44.3-43.1 44.3-75.6C175 39.1 135.9 0 87.6 0zm-21.7 128.4c-11.3 0-20.5-9.2-20.5-20.5s9.2-20.5 20.5-20.5 20.5 9.2 20.5 20.5-9.2 20.5-20.5 20.5z"/>
  <circle fill="#1b2838" cx="65.9" cy="107.9" r="11"/>
</svg>
